<?xml version="1.0" encoding="UTF-8"?>
<svg width="840px" height="669px" viewBox="0 0 840 669" version="1.1" xmlns="http://www.w3.org/2000/svg" xmlns:xlink="http://www.w3.org/1999/xlink">
    <title>error-access</title>
    <defs>
        <polygon id="path-1" points="0 0.503 840 0.503 840 2.503 0 2.503"></polygon>
    </defs>
    <g id="Page-1" stroke="none" stroke-width="1" fill="none" fill-rule="evenodd">
        <g id="error-access">
            <g id="Fill-1-Clipped" transform="translate(0.000000, 591.497000)">
                <mask id="mask-2" fill="white">
                    <use xlink:href="#path-1"></use>
                </mask>
                <g id="path-1"></g>
                <polygon id="Fill-1" fill="#E4E4DE" fill-rule="nonzero" mask="url(#mask-2)" points="0 1.753 840 1.753 840 1.253 0 1.253"></polygon>
            </g>
            <polygon id="Fill-4" fill="#E4E4DE" fill-rule="nonzero" points="132 607.122 188 607.122 188 606.872 132 606.872"></polygon>
            <polygon id="Fill-5" fill="#E4E4DE" fill-rule="nonzero" points="224 619.122 275 619.122 275 618.872 224 618.872"></polygon>
            <polygon id="Fill-6" fill="#E4E4DE" fill-rule="nonzero" points="96 622.747 160 622.747 160 622.247 96 622.247"></polygon>
            <polygon id="Fill-7" fill="#E4E4DE" fill-rule="nonzero" points="729 621.747 756 621.747 756 621.247 729 621.247"></polygon>
            <polygon id="Fill-8" fill="#E4E4DE" fill-rule="nonzero" points="658 621.747 724 621.747 724 621.247 658 621.247"></polygon>
            <polygon id="Fill-9" fill="#E4E4DE" fill-rule="nonzero" points="420 606.747 471 606.747 471 606.247 420 606.247"></polygon>
            <polygon id="Fill-10" fill="#E4E4DE" fill-rule="nonzero" points="478 606.747 600 606.747 600 606.247 478 606.247"></polygon>
            <polygon id="Fill-13" fill="#E4E4DE" fill-rule="nonzero" points="695.249986 321.497 458 558.748501 483.750014 584.497 721 347.247179"></polygon>
            <polyline id="Fill-14" fill="#D4D5CF" fill-rule="nonzero" points="608 459.983211 582.18706 434.497 547 469.23641 570.671969 506.497 608 459.983211"></polyline>
            <polyline id="Fill-15" fill="#D4D5CF" fill-rule="nonzero" points="721.410842 346.497 730 355.086158 492.589158 592.497 484 583.906161 721.410842 346.497"></polyline>
            <polyline id="Fill-16" fill="#E4E4DE" fill-rule="nonzero" points="483.750014 329.497 458 355.247014 695.249986 592.497 721 566.746986 483.750014 329.497"></polyline>
            <polyline id="Fill-17" fill="#D4D5CF" fill-rule="nonzero" points="484 330.051242 492.589158 321.497 730 557.942758 721.410842 566.497 484 330.051242"></polyline>
            <polyline id="Fill-18" fill="#E4E4DE" fill-rule="nonzero" points="296 401.468759 275.928658 381.497 91 565.523567 111.071342 585.497 296 401.468759"></polyline>
            <polyline id="Fill-19" fill="#D4D5CF" fill-rule="nonzero" points="208 489.318214 188.111344 469.497 161 496.51641 179.239329 525.497 208 489.318214"></polyline>
            <polyline id="Fill-20" fill="#D4D5CF" fill-rule="nonzero" points="296.295169 401.497 303 408.166852 117.703145 592.497 111 585.827148 296.295169 401.497"></polyline>
            <polyline id="Fill-21" fill="#E4E4DE" fill-rule="nonzero" points="111.071342 387.497 91 407.568178 275.928658 592.497 296 572.425822 111.071342 387.497"></polyline>
            <polyline id="Fill-22" fill="#D4D5CF" fill-rule="nonzero" points="111 388.165233 117.703145 381.497 303 565.827089 296.295169 572.497 111 388.165233"></polyline>
            <polygon id="Fill-23" fill="#F1F0EC" fill-rule="nonzero" points="506 592.497 536 592.497 536 412.497 506 412.497"></polygon>
            <polyline id="Fill-24" fill="#E4E4DE" fill-rule="nonzero" points="536 487.497 506 487.497 506 508.497 536 502.288077 536 487.497"></polyline>
            <polygon id="Fill-25" fill="#E4E4DE" fill-rule="nonzero" points="536 592.497 546 592.497 546 412.497 536 412.497"></polygon>
            <polygon id="Fill-26" fill="#F1F0EC" fill-rule="nonzero" points="196 592.497 226 592.497 226 412.497 196 412.497"></polygon>
            <polyline id="Fill-27" fill="#E4E4DE" fill-rule="nonzero" points="226 487.497 196 487.497 196 508.497 226 502.288077 226 487.497"></polyline>
            <polygon id="Fill-28" fill="#E4E4DE" fill-rule="nonzero" points="226 592.497 236 592.497 236 412.497 226 412.497"></polygon>
            <polygon id="Fill-29" fill="#F1F0EC" fill-rule="nonzero" points="174 494.497 551 494.497 551 438.497 174 438.497"></polygon>
            <polygon id="Fill-30" fill="#E4E4DE" fill-rule="nonzero" points="551 494.497 557 494.497 557 438.497 551 438.497"></polygon>
            <path d="M691,122.4178 C689.280147,122.4178 687.545256,122.634735 685.82708,123.051657 L685.805352,123.056742 C683.604147,118.055373 678.705337,114.799653 672.095037,114.799653 C667.253054,114.799653 662.304103,116.540218 657.99529,119.434944 C655.189047,109.888109 646.783686,103.497 635.040583,103.497 C618.350201,103.497 600.865914,116.433445 594.546433,132.973045 C593.078963,132.630694 591.514553,132.444265 589.843175,132.444265 C589.320033,132.444265 588.795221,132.461214 588.272079,132.496804 C573.869814,133.462843 574.952867,155.497 589.385217,155.497 L692.007836,155.497 C695.609656,155.497 699.032638,153.790332 701.151946,150.837982 C702.92695,148.366956 704.304165,145.638321 705.138183,142.770711 C708.410741,131.527376 702.076218,122.4178 691,122.4178" id="Fill-37" fill="#EAEAE5" fill-rule="nonzero"></path>
            <path d="M287.851883,25.9739263 C285.593951,10.9633338 273.685122,0.497 256.267746,0.497 C242.000034,0.497 227.298234,7.5196378 216.355168,18.3240861 L216.345073,18.3342296 C213.516768,15.7408915 209.579687,14.1973989 204.82154,14.1973989 C192.746143,14.1973989 180.066723,24.0331492 176.50316,36.168078 C175.941201,38.0784248 175.668634,39.9177676 175.604698,41.6861064 L175.579461,41.7013215 L175.333814,41.8703788 C165.331273,48.7053631 170.35694,64.497 182.45421,64.497 L288.841201,64.497 C292.958311,64.497 296.873519,62.4886 299.111262,59.0144737 C300.77695,56.431279 302.085945,53.6502874 302.935614,50.7560274 C306.736411,37.8197673 300.045056,27.1860668 287.851883,25.9739263" id="Fill-38" fill="#EAEAE5" fill-rule="nonzero"></path>
            <path d="M414.830741,192.526241 C411.731141,171.888085 395.381382,157.497 371.469942,157.497 C351.881142,157.497 331.697623,167.150794 316.673383,182.008508 L316.659943,182.020343 C312.779143,178.454695 307.374583,176.332889 300.841063,176.332889 C284.262823,176.332889 266.854664,189.858345 261.962504,206.543686 C261.193064,209.169315 260.816744,211.701957 260.731064,214.131467 L260.695784,214.153446 L260.358104,214.383378 C246.610664,223.792024 253.429784,245.497 270.053384,245.497 L410.030981,245.497 C421.648181,245.497 432.128021,238.005588 435.477941,226.811582 L435.540101,226.601938 C440.754821,208.815963 431.570261,194.193254 414.830741,192.526241" id="Fill-39" fill="#F1F0EC" fill-rule="nonzero"></path>
            <path d="M746,649.497839 C746,659.991591 600.046614,668.497 420,668.497 C239.955067,668.497 94,659.991591 94,649.497839 C94,639.004087 239.955067,630.497 420,630.497 C600.046614,630.497 746,639.004087 746,649.497839" id="Fill-40" fill="#F1F0EC" fill-rule="nonzero"></path>
            <path d="M523.525058,240.966388 C522.790844,242.28303 522.228503,243.235708 521.574385,244.334307 C520.94196,245.392652 520.277829,246.415774 519.622043,247.445606 C518.307132,249.496882 516.912125,251.484424 515.493757,253.460224 C512.636996,257.391699 509.598351,261.212474 506.296056,264.870557 C503.002104,268.535348 499.484551,272.074346 495.59989,275.363434 C491.741929,278.672648 487.54189,281.76382 482.80454,284.38033 C481.830037,284.945563 479.929424,285.9603 478.307478,286.550692 C476.637141,287.184692 474.970141,287.64929 473.339852,287.947841 C470.07093,288.548297 467.003917,288.586873 464.115452,288.392312 C458.346865,287.983063 453.287462,286.480247 448.533425,284.766098 C443.807756,282.959699 439.402471,280.816174 435.214113,278.397579 C431.000725,275.942085 427.117733,273.390987 423.194693,270.244466 C420.678341,268.228412 420.264511,264.540139 422.271919,262.010845 C423.890528,259.972987 426.588765,259.307118 428.891527,260.182643 L429.200231,260.303405 C437.10972,263.322455 445.54484,266.21068 453.440979,267.691692 C457.3757,268.486708 461.258691,268.803708 464.547637,268.62592 C466.179595,268.516899 467.659704,268.250216 468.806079,267.834258 C469.38177,267.631311 469.88237,267.421654 470.301206,267.181808 C470.775108,266.910093 470.858542,266.819522 471.798002,266.170426 C477.825233,261.937046 483.528742,256.031449 488.778373,249.634417 C491.391508,246.410742 493.942902,243.06966 496.370815,239.619557 C497.597286,237.90373 498.772029,236.147649 499.950109,234.406663 L501.668838,231.781767 L503.240724,229.316209 L503.504373,228.903606 C506.983547,223.445834 514.205545,221.855801 519.635392,225.352867 C524.856656,228.717431 526.501963,235.590802 523.525058,240.966388" id="Fill-43" fill="#E4E4DE" fill-rule="nonzero"></path>
            <path d="M431,262.007266 L418.353669,253.497 L413,270.594654 C413,270.594654 421.163232,275.391318 429.250618,269.751339 L431,262.007266" id="Fill-44" fill="#E4E4DE" fill-rule="nonzero"></path>
            <path d="M407.099818,255.831371 L406.087719,261.322101 C405.721066,263.313041 406.521958,265.341194 408.150778,266.543877 L413.513717,270.497 L419,253.246702 L413.789129,251.714169 C410.781558,250.827803 407.667539,252.744315 407.099818,255.831371" id="Fill-45" fill="#E4E4DE" fill-rule="nonzero"></path>
            <path d="M524.730958,213.64307 C511.474491,215.72717 498.061847,231.176806 490,245.576811 C498.863108,260.900087 512.975159,266.497 512.975159,266.497 C512.975159,266.497 528.694826,251.733078 535.06248,240.830723 C541.430133,229.926683 537.203139,211.68196 524.730958,213.64307" id="Fill-46" fill="#3769A4" fill-rule="nonzero"></path>
            <path d="M510.638587,265.497 C509.859837,265.094224 508.911792,264.571116 507.841856,263.917649 C503.230298,261.106571 496.346818,255.887191 490.995447,247.453956 C490.656859,246.920821 490.326737,246.375986 490,245.81611 C496.5669,234.147295 506.697431,221.783231 517.393403,216.520398 C517.401868,216.520398 517.439113,216.520398 517.503444,216.520398 C517.721833,216.520398 518.243257,216.517055 519,216.497 C512.649796,221.0462 508.578284,228.640456 508.644308,236.714368 C508.713719,245.023928 509.180969,254.884428 510.638587,265.497" id="Fill-47" fill="#FFFFFF" fill-rule="nonzero"></path>
            <path d="M490.745227,242.497 C490.745227,242.497 488.320743,245.391482 488,247.176832 C491.20578,252.212392 498.81478,265.68306 513.0393,268.497 C515.450626,267.008649 516,264.919588 516,264.919588 C516,264.919588 499.65858,256.689191 490.745227,242.497" id="Fill-48" fill="#132529" fill-rule="nonzero"></path>
            <path d="M577.261731,212.935487 C561.876652,210.416232 544.171349,209.662479 529.475479,211.561194 C517.598339,213.09568 508.718922,224.100135 508.815947,236.170299 C508.901261,246.727898 509.612217,259.767654 512.114781,273.675828 C507.75035,296.875229 506.181229,328.374343 510.78153,335.325058 L593.078402,336.497 C596.59805,326.570058 592.173397,283.673593 596.867377,238.866609 C598.180554,226.334414 589.60392,214.958984 577.261731,212.935487" id="Fill-49" fill="#FFFFFF" fill-rule="nonzero"></path>
            <path d="M547.688822,332.497 C547.091359,332.497 546.495675,332.495326 545.899991,332.493652 C541.465257,295.227161 546.177384,236.104579 546.225395,235.497 L548,235.62588 C547.950211,236.231785 543.234527,295.407928 547.688822,332.497" id="Fill-50" fill="#C2C2C2" fill-rule="nonzero"></path>
            <path d="M537.074408,213.277507 C539.844874,212.161413 538.811264,210.497 538.811264,210.497 C538.811264,210.497 526.247676,210.497 517.56503,213.029879 C516.237039,214.554559 517.666429,216.496669 517.666429,216.496669 C517.666429,216.496669 528.852961,216.597489 537.074408,213.277507" id="Fill-51" fill="#132529" fill-rule="nonzero"></path>
            <path d="M539.080488,210.866 C539.071341,210.696 539.038415,210.548 539,210.428 C539.735366,210.188 540.651829,210.128 541.387195,210.128 C541.612195,210.128 541.818902,210.134 542,210.142 C541.672561,210.362 541.323171,210.574 540.95,210.774 C540.32439,210.8 539.70061,210.832 539.080488,210.866" id="Fill-52" fill="#BEBFBB" fill-rule="nonzero"></path>
            <path d="M534.980896,238 C534.980896,238 525.519886,224.603643 535.768498,212.928987 C536.22834,212.777756 536.68329,212.618217 537.126826,212.448706 C537.501875,212.307446 537.805175,212.156216 538.053033,212 C537.342071,212.75449 536.895274,213.691787 536.719165,214.67063 C535.898949,218.579354 540.640869,224.719974 544,228.482454 C538.522659,228.520678 534.980896,238 534.980896,238 M539,211.61 C539.258921,211.2 539.320332,210.804 539.303734,210.482 C539.86639,210.448 540.432365,210.416 541,210.39 C540.722822,210.554 540.432365,210.712 540.125311,210.864 C539.712033,211.068 539.33527,211.32 539,211.61" id="Fill-53" fill="#C2C2C2" fill-rule="nonzero"></path>
            <path d="M536,213.497 C536.596861,212.715001 537.266838,211.938262 538.014406,211.173797 C538.19048,210.854686 538.527707,210.640776 538.93208,210.497 C538.963415,210.602202 538.990274,210.73195 538.997735,210.880986 C539.012656,211.163277 538.957446,211.510442 538.724671,211.869881 C538.491895,212.066258 538.280009,212.283674 538.090506,212.516871 C537.863699,212.681687 537.586158,212.841243 537.242963,212.990279 C536.837098,213.169122 536.420787,213.337444 536,213.497" id="Fill-54" fill="#09181B" fill-rule="nonzero"></path>
            <path d="M537.108244,215.497 C535.749094,221.381995 547.638356,232.497 547.638356,232.497 C547.638356,232.497 568.668891,222.361182 570,216.545306 L537.108244,215.497" id="Fill-55" fill="#FFFFFE" fill-rule="nonzero"></path>
            <path d="M594.664386,282.497 C589.165852,277.199518 585.984034,267.178607 585,259.497 C589.468882,264.742765 593.193223,268.581845 593.193223,268.581845 C593.193223,268.581845 593.862822,268.309472 595,267.718181 C594.825676,272.782939 594.723037,277.727025 594.664386,282.497" id="Fill-56" fill="#FFFFFF" fill-rule="nonzero"></path>
            <path d="M566.235562,180.497 L544.05518,194.975988 C546.680297,201.38986 547.906924,208.065248 540.328121,211.144779 C535.938886,212.926782 535.859694,219.14284 540.277573,220.854435 C542.055172,221.543431 544.334878,222.054731 547.226213,222.3196 C554.852194,223.018655 562.838749,221.597076 568.088982,219.01711 C571.03929,217.567032 571.876699,213.887354 570.001375,211.196747 C564.247348,202.940521 564.949963,188.729756 566.235562,180.497" id="Fill-57" fill="#E4E4DE" fill-rule="nonzero"></path>
            <path d="M545.5215,200.724 C545.5075,200.572 545.4925,200.422 545.4765,200.27 C545.4935,200.422 545.5095,200.572 545.5235,200.722 C545.5235,200.724 545.5225,200.724 545.5215,200.724" id="Fill-58" fill="#BEBFBB" fill-rule="nonzero"></path>
            <path d="M545.498034,200.497 C545.474443,200.368487 545.447482,200.239975 545.418835,200.109748 C545.110466,198.598439 544.604943,197.044293 544,195.497 C546.680959,197.051147 549.703988,197.913038 552.770829,197.913038 C552.846658,197.913038 552.924172,197.911325 553,197.911325 C550.709979,199.367802 547.932971,200.356493 545.498034,200.497" id="Fill-59" fill="#E4E4DE" fill-rule="nonzero"></path>
            <path d="M541.326959,152.604452 C547.029839,152.490442 548.574511,160.673682 546.489459,163.437164 C550.804004,164.378177 552.885658,169.433783 551.645162,171.998171 C550.402967,174.564261 545.352622,177.365179 540.891936,176.242089 C533.268837,174.324328 531.945075,167.982274 534.033526,165.092871 C529.888912,161.664043 531.963768,151.335021 541.326959,152.604452" id="Fill-60" fill="#132529" fill-rule="nonzero"></path>
            <path d="M534.289228,171.497 C533.555153,170.338175 533.219834,169.115898 533.221647,167.988798 C533.223459,166.865039 533.56059,165.836456 534.169601,165.061679 C532.735888,163.971315 532.001813,162.169625 532,160.276098 C532,158.187207 532.893578,155.984771 534.733299,154.497 C535.958571,154.774183 537.379596,155.054706 539,155.336898 C536.159762,160.072386 534.695236,165.899907 534.289228,171.497" id="Fill-61" fill="#415051" fill-rule="nonzero"></path>
            <path d="M572.845498,166.562284 C571.161128,179.889862 570.847718,187.783747 563.684537,194.152887 C552.911273,203.731926 536.893837,196.371617 534.587675,182.76712 C532.5128,170.523578 535.616733,150.786335 548.981077,146.433301 C562.145978,142.144431 574.531544,153.234705 572.845498,166.562284" id="Fill-62" fill="#E4E4DE" fill-rule="nonzero"></path>
            <path d="M571.722156,176.330283 C566.206179,176.247281 564.988259,168.050418 567.098662,165.37403 C562.960036,164.288229 561.117542,159.186152 562.404493,156.675767 C563.689802,154.167077 568.668316,151.556751 572.941719,152.830576 C580.244308,155.003872 581.311015,161.359447 579.195681,164.161185 C583.084477,167.716717 580.729175,177.919177 571.722156,176.330283" id="Fill-63" fill="#132529" fill-rule="nonzero"></path>
            <path d="M573.550212,176.497 C573.039097,176.497 572.500044,176.455942 571.934695,176.37054 C571.86567,176.359044 571.795001,176.347547 571.722689,176.336051 C567.877001,176.280212 566.120146,172.399372 566.125077,169.175467 C566.12672,167.774555 566.460342,166.49846 567.099646,165.713423 C563.834098,164.882401 561.998358,161.627292 561.999999,159.09481 C562.001645,158.912511 562.011505,158.731854 562.031227,158.557766 C563.640171,158.634956 565.05683,158.666161 566.297639,158.666161 C568.153102,158.666161 569.619065,158.59554 570.75798,158.497 C575.897068,160.060504 579.147825,161.287328 580.15362,161.678204 C580.11582,162.788423 579.775625,163.791891 579.195485,164.537511 C580.393565,165.600102 580.999999,167.275285 580.999999,169.040796 C580.999999,172.588241 578.547963,176.497 573.550212,176.497" id="Fill-64" fill="#415051" fill-rule="nonzero"></path>
            <path d="M561.322287,168.933 C559.423364,168.933 558,168.283 558,168.283 C558,168.283 558.654515,168.061 559.517813,168.061 C560.286661,168.061 561.219553,168.237 562,168.905 C561.769677,168.925 561.542668,168.933 561.322287,168.933" id="Fill-65" fill="#B6B6B6" fill-rule="nonzero"></path>
            <path d="M561,170.408 C559.238653,170.212 558,169.588 558,169.588 C558,169.588 558.04978,169.586 558.137628,169.586 C558.601757,169.586 560.125915,169.647 561,170.408" id="Fill-66" fill="#B6B6B6" fill-rule="nonzero"></path>
            <path d="M535.33849,167.933 C535.229299,167.933 535.11647,167.923 535,167.903 C535.389445,167.237 535.857143,167.061 536.241128,167.061 C536.67061,167.061 537,167.283 537,167.283 C537,167.283 536.286624,167.933 535.33849,167.933" id="Fill-67" fill="#CDCDCD" fill-rule="nonzero"></path>
            <path d="M535.068,169.4075 C535.61,168.6475 536.554,168.5865 536.844,168.5865 C536.9,168.5865 536.932,168.5885 536.932,168.5885 C536.932,168.5885 536.162,169.2125 535.068,169.4075" id="Fill-68" fill="#CDCDCD" fill-rule="nonzero"></path>
            <path d="M576.951551,179.773183 C575.131092,182.709425 572.241612,184.610657 569.615917,185.311279 C565.667829,186.366988 564.088594,182.742864 565.518583,178.972245 C566.804531,175.579007 570.409005,170.93898 574.213053,171.552024 C577.959832,172.155514 579.034059,176.411791 576.951551,179.773183" id="Fill-69" fill="#E4E4DE" fill-rule="nonzero"></path>
            <path d="M554.995015,168.594326 C554.940386,169.698208 554.450029,170.549187 553.901141,170.494506 C553.352253,170.441533 552.950342,169.503405 553.004971,168.401233 C553.0609,167.297352 553.549957,166.446372 554.100146,166.499345 C554.649034,166.554026 555.049644,167.492154 554.995015,168.594326" id="Fill-70" fill="#132529" fill-rule="nonzero"></path>
            <path d="M549.791554,188.418357 C548.419396,188.724274 547.178474,188.11048 547.017337,187.049576 C546.8562,185.988672 547.836312,184.880705 549.20847,184.574788 C550.578967,184.270832 551.82155,184.884627 551.982687,185.94553 C552.143824,187.006434 551.162051,188.112441 549.791554,188.418357" id="Fill-71" fill="#132529" fill-rule="nonzero"></path>
            <path d="M540.992518,167.594329 C540.910522,168.698208 540.174513,169.549187 539.350651,169.494506 C538.526789,169.441533 537.925487,168.503406 538.007482,167.401235 C538.089478,166.295646 538.825487,165.446377 539.649349,165.499349 C540.473211,165.554031 541.074513,166.490449 540.992518,167.594329" id="Fill-72" fill="#132529" fill-rule="nonzero"></path>
            <path d="M543.475445,178.585813 C535.582421,179.052505 534.077944,182.384983 535.452695,183.841939 C536.827446,185.300354 540.208727,183.868191 540.208727,183.868191 C540.208727,183.868191 546.582112,185.045131 548.460601,183.290658 C551.472923,184.400512 556.067219,182.325188 554.776705,180.7501 C553.486192,179.175012 550.219474,178.186207 543.475445,178.585813" id="Fill-73" fill="#132529" fill-rule="nonzero"></path>
            <path d="M537.321624,184.497 C536.608964,184.497 535.916522,184.333655 535.453208,183.842163 C535.163427,183.534433 535.001689,183.143573 534.999996,182.714793 C534.996634,181.10614 537.247494,178.95349 543.476108,178.585965 C544.492027,178.526169 545.428763,178.497 546.293052,178.497 C551.160368,178.497 553.682476,179.412897 554.77758,180.750281 C554.930895,180.93842 555.001655,181.132391 555.000028,181.32928 C554.996601,182.452275 552.653079,183.604438 550.365154,183.604438 C549.706407,183.604438 549.054399,183.50964 548.461358,183.290875 C547.659405,184.04051 546.038651,184.2549 544.444854,184.2549 C542.303504,184.2549 540.209329,183.868415 540.209329,183.868415 C540.209329,183.868415 538.723357,184.497 537.321624,184.497" id="Fill-74" fill="#415051" fill-rule="nonzero"></path>
            <path d="M544,168.497 C544,168.497 541.020017,174.376215 538,177.103585 C539.867711,178.977127 543.305483,178.419293 543.305483,178.419293 L544,168.497" id="Fill-75" fill="#979797" fill-rule="nonzero"></path>
            <path d="M557.38044,162.495844 L557.700746,162.396755 C558.007049,162.203615 558.092814,161.808938 557.889778,161.51167 C555.864677,158.545712 552.792895,158.498687 552.663373,158.496993 C552.294059,158.495328 551.998257,158.780839 551.999992,159.133529 C552.001758,159.48454 552.29931,159.771731 552.665123,159.77509 C552.766641,159.77677 555.162806,159.837231 556.778336,162.205295 C556.914859,162.405152 557.1494,162.50928 557.38044,162.495844" id="Fill-76" fill="#132529" fill-rule="nonzero"></path>
            <path d="M535.660294,161.497021 C535.874929,161.498707 536.086073,161.398448 536.215203,161.210032 C537.843288,158.812472 540.232192,158.809015 540.333402,158.809015 C540.699852,158.812472 540.998247,158.523797 541,158.162521 C541.001737,157.801245 540.710322,157.502199 540.345617,157.496987 C540.212997,157.496987 537.152268,157.465898 535.112364,160.468465 C534.908199,160.76924 534.990214,161.178917 535.293844,161.382891 L535.660294,161.497021" id="Fill-77" fill="#132529" fill-rule="nonzero"></path>
            <path d="M557.768616,472.428909 C561.51681,411.85367 560.690397,349.688366 554.166259,336.156868 L511,335.497 C511,335.497 516.349056,436.785946 518.047142,477.136978 C519.807251,519.091506 523.552093,628.189733 523.552093,628.189733 L548.525528,628.497 C548.525528,628.497 563.203162,519.291313 557.768616,472.428909" id="Fill-78" fill="#132529" fill-rule="nonzero"></path>
            <path d="M557.903,458.497 C557.965,457.494886 558.027,456.495943 558.089,455.497 L558.097,455.503342 C558.037,456.497529 557.975,457.4933 557.913,458.489072 L557.903,458.497" id="Fill-79" fill="#BEBFBB" fill-rule="nonzero"></path>
            <path d="M557.797,465.497 C557.795,465.488012 557.791,465.477226 557.789,465.46644 C557.933,463.14569 558.071,460.823143 558.201,458.505988 L558.211,458.497 C558.079,460.826738 557.943,463.163667 557.797,465.497" id="Fill-80" fill="#A4A6A3" fill-rule="nonzero"></path>
            <path d="M558.397,455.497 L558.389,455.490212 C558.941,445.67535 559.349,435.940242 559.609,426.497 C559.611,426.505484 559.611,426.503788 559.611,426.510575 C559.355,435.95212 558.947,445.682138 558.397,455.497" id="Fill-81" fill="#ACAEAB" fill-rule="nonzero"></path>
            <path d="M557.452926,464.497 C552.297716,445.294011 546.84977,413.724457 552.202407,393.497 C554.426857,404.253923 556.75853,415.597677 559,426.618177 C558.778746,435.843369 558.431548,445.353689 557.96181,454.941922 C557.909049,455.986283 557.856289,457.030645 557.803528,458.078322 C557.692901,460.215118 557.575467,462.356888 557.452926,464.497" id="Fill-82" fill="#09181B" fill-rule="nonzero"></path>
            <path d="M547.376619,631.779304 L525.761149,631.498244 C524.440075,631.474822 523.020045,631.779304 521.936468,632.649253 C515.680747,637.656474 510.90608,637.818753 503.796032,639.110292 C495.27255,640.659469 499.48976,649.353933 505.77187,649.454312 C516.163986,649.621609 515.301412,649.233479 524.161347,649.374009 C526.161924,649.407468 530.306566,649.454312 530.306566,649.454312 L533.082305,646.591847 L535.529837,649.454312 C535.529837,649.454312 542.333119,649.454312 546.87029,649.454312 C548.125392,649.454312 549.121558,648.403682 548.987966,647.137238 L547.376619,631.779304" id="Fill-83" fill="#132529" fill-rule="nonzero"></path>
            <path d="M549.476869,633.497 C549.094438,633.428925 521.143997,632.598736 521.143997,632.598736 L520,622.497 L551,623.189377 L549.476869,633.497" id="Fill-84" fill="#FFFFFF" fill-rule="nonzero"></path>
            <path d="M608.12493,472.164627 C603.49655,411.486811 601.523028,349.722489 593.118777,336.169759 L541,335.497 C541,335.497 561.728697,436.461307 569.011934,476.880668 C576.580459,518.906241 596.956741,628.189213 596.956741,628.189213 L622,628.497 C622,628.497 620.05165,519.106386 608.12493,472.164627" id="Fill-85" fill="#132529" fill-rule="nonzero"></path>
            <path d="M623.35215,631.779304 L601.412391,631.498244 C600.071498,631.474822 598.631837,631.779304 597.53033,632.649253 C591.180757,637.656474 594.083514,637.818753 586.868471,639.110292 C578.217115,640.659469 582.49592,649.353933 588.873951,649.454312 C599.420303,649.621609 598.544788,649.233479 607.539319,649.374009 C609.56991,649.407468 617.303901,649.454312 617.303901,649.454312 L618.606292,646.591847 L620.327189,649.454312 L622.89849,649.454312 C624.147312,649.454312 625.121594,648.371895 624.987672,647.130546 L623.35215,631.779304" id="Fill-86" fill="#132529" fill-rule="nonzero"></path>
            <path d="M625,633.497 C624.596482,633.428925 595.721204,632.598736 595.721204,632.598736 L593,622.497 L624.989827,623.189377 L625,633.497" id="Fill-87" fill="#FFFFFF" fill-rule="nonzero"></path>
            <path d="M543.067461,209.515923 C543.067461,209.515923 536.773246,220.496598 544,229.405543 C538.273493,229.442329 534.522877,235.497 534.522877,235.497 C534.522877,235.497 526.8989,220.484894 538.157564,210.485741 C538.953718,209.278485 543.067461,209.515923 543.067461,209.515923" id="Fill-88" fill="#C2C2C2" fill-rule="nonzero"></path>
            <path d="M595.204962,341.426505 C565.606635,342.659704 531.660865,343.036279 510.435705,341.424809 C510.201573,341.40615 509.985969,341.297588 509.849533,341.104211 C508.522223,339.206069 507.868675,335.94581 508.021956,333.223273 C508.045537,332.805987 508.411053,332.492175 508.8271,332.504049 C536.843773,333.260592 564.681898,333.221577 593.951766,332.497264 C594.280225,332.488782 594.588471,332.685551 594.709748,332.992579 C595.644591,335.377555 596.14149,337.964389 595.964628,340.686925 C595.937677,341.090641 595.60585,341.409543 595.204962,341.426505" id="Fill-89" fill="#132529" fill-rule="nonzero"></path>
            <path d="M546.79014,342.497 C533.053827,342.497 520.35679,342.178086 510.435651,341.424905 C510.201519,341.406245 509.985915,341.297679 509.849479,341.104294 C508.646814,339.384193 507.998319,336.544498 507.999997,334.001665 C507.999997,333.73873 508.008425,333.477492 508.021901,333.223039 C508.045482,332.812522 508.397523,332.503785 508.803464,332.503785 C508.811886,332.503785 508.818624,332.503785 508.827046,332.503785 C522.622313,332.875287 536.375471,333.0551 550.278541,333.0551 C564.607765,333.0551 579.095323,332.865109 593.951765,332.497 C593.958502,332.497 593.96524,332.497 593.971978,332.497 C594.292014,332.497 594.590154,332.690384 594.709747,332.992335 C595.516576,335.050011 595.998316,337.260359 595.999997,339.579273 C595.999997,339.945685 595.988209,340.31549 595.964628,340.686992 C595.937677,341.090723 595.605849,341.409638 595.204961,341.426601 C579.440625,342.08309 562.441621,342.497 546.79014,342.497" id="Fill-90" fill="#09181B" fill-rule="nonzero"></path>
            <path d="M538.126802,331.60177 C538.126802,331.60177 537.51175,338.545057 538.990805,342.968061 C545.195029,343.985835 557.922393,343.221642 557.922393,343.221642 C557.922393,343.221642 558.262461,336.802767 557.518866,331.762199 C547.762631,331.280912 538.126802,331.60177 538.126802,331.60177" id="Fill-91" fill="#FFFFFE" fill-rule="nonzero"></path>
            <path d="M596.575315,230.366604 L597.532579,231.209931 L598.295689,231.911312 L599.723988,233.273994 C600.65424,234.177439 601.505141,235.090904 602.361108,236.007709 C604.05447,237.834638 605.653287,239.704986 607.169377,241.607064 C610.201558,245.421239 613.021014,249.34062 615.545018,253.413638 C618.077463,257.478305 620.454585,261.618121 622.53119,265.888193 C624.683769,270.119856 626.578038,274.458396 628.264646,278.860395 C628.710357,280.036042 629.064899,280.755792 629.713205,282.778107 C630.258525,284.508179 630.594496,286.198172 630.783585,287.802998 C631.156699,291.034358 631.001375,293.983497 630.665404,296.745601 C629.988397,302.264798 628.382827,307.055896 626.628687,311.62656 C624.786755,316.162154 622.674695,320.422207 620.304327,324.488544 C617.91201,328.583271 615.428525,332.392436 612.414916,336.235 C610.415972,338.785019 606.706784,339.247597 604.128755,337.272041 C602.074097,335.693935 601.359948,333.040378 602.168642,330.739182 L602.26994,330.455289 C605.059006,322.553068 607.846384,314.260077 609.42663,306.424653 C610.253896,302.530321 610.73506,298.647678 610.701294,295.32614 C610.677658,293.674556 610.478439,292.169927 610.161039,291.026009 C609.786237,289.703405 609.713641,289.795253 608.51495,287.400539 C604.726412,279.980934 600.573202,272.805142 595.884801,266.086918 C593.56677,262.710271 591.095103,259.47557 588.56097,256.357766 C587.304877,254.78467 585.979564,253.298411 584.688017,251.830521 L582.732969,249.7197 L581.785834,248.734427 L581.340124,248.286879 L581.061555,248.006327 C576.136793,243.767984 575.618486,236.386788 579.901695,231.513863 C584.184904,226.644277 591.650553,226.129931 596.575315,230.366604" id="Fill-92" fill="#E4E4DE" fill-rule="nonzero"></path>
            <path d="M582.284507,215.669604 C595.298266,217.935938 608.275273,233.519919 616,247.980806 C607.057426,263.121593 593.093111,268.497 593.093111,268.497 C593.093111,268.497 577.837443,253.561023 571.728159,242.608756 C565.618876,231.653132 570.040881,213.537572 582.284507,215.669604" id="Fill-93" fill="#FFFFFF" fill-rule="nonzero"></path>
            <path d="M615.344279,244.497 C615.344279,244.497 617.70655,247.464641 618,249.278199 C614.752489,254.329647 607.021718,267.859097 592.88559,270.497 C590.515167,268.951991 590,266.830791 590,266.830791 C590,266.830791 606.310917,258.736916 615.344279,244.497" id="Fill-94" fill="#132529" fill-rule="nonzero"></path>
            <path d="M572.865392,214.436963 C570.120228,213.174369 571.215908,211.497 571.215908,211.497 C571.215908,211.497 583.842642,211.977553 592.481987,214.922998 C593.765108,216.549206 592.260465,218.497 592.260465,218.497 C592.260465,218.497 581.015685,218.17724 572.865392,214.436963" id="Fill-95" fill="#132529" fill-rule="nonzero"></path>
            <path d="M571.182961,212.116 C570.921788,212.068 570.660615,212.022 570.396648,211.976 C570.286313,211.638 570.153631,211.306 570,210.988 C570,210.988 570.314246,210.878 570.722067,210.878 C571.128492,210.878 571.627095,210.988 572,211.42 C571.585196,211.39 571.356145,211.378 571.356145,211.378 C571.356145,211.378 571.210894,211.674 571.182961,212.116" id="Fill-96" fill="#BEBFBB" fill-rule="nonzero"></path>
            <path d="M563.502318,239.497 C563.502318,239.497 559.68548,229.362463 554,229.325972 C554,229.324313 554,229.324313 554.001693,229.324313 C560.479315,225.827815 569.666807,220.27787 570.546965,216.5193 C571.000584,215.245433 570.946421,213.800723 570.32354,212.497 C570.643444,212.53515 570.959962,212.573299 571.27648,212.613108 C571.229087,213.137251 571.467745,213.910196 572.914927,214.576985 C573.067262,216.285426 573.008021,217.983915 572.793059,219.645913 C570.579124,222.465669 569.355367,226.476359 569.219958,230.67282 C566.571022,235.942448 563.502318,239.497 563.502318,239.497" id="Fill-97" fill="#C2C2C2" fill-rule="nonzero"></path>
            <path d="M554,229.497 C558.367059,226.698295 561.549054,223.680679 563.842251,220.934176 C565.151714,220.494668 566.367877,219.992855 567.461279,219.437155 C568.72,218.797259 569.582609,217.726275 570,216.497 C569.148849,220.312803 560.264143,225.947259 554,229.497" id="Fill-98" fill="#BEBFBB" fill-rule="nonzero"></path>
            <path d="M564,220.497 C568.674399,215.536791 569.946973,211.497 569.946973,211.497 C570.14248,211.754652 570.311327,212.023647 570.451737,212.297504 C571.105797,213.571181 571.162672,214.982596 570.686345,216.227104 C570.233124,217.410036 569.296467,218.440644 567.929694,219.056417 C566.742433,219.591166 565.42187,220.074062 564,220.497" id="Fill-99" fill="#DB6E60" fill-rule="nonzero"></path>
            <path d="M569,230.497 C569.11369,226.310779 570.141165,222.309876 572,219.497 C571.55945,223.519413 570.344387,227.320105 569,230.497" id="Fill-100" fill="#C2C2C2" fill-rule="nonzero"></path>
            <path d="M572.971219,214.497 C571.261219,213.720439 570.979219,212.820245 571.035219,212.209814 C571.075219,211.782898 571.283219,211.497 571.283219,211.497 C571.283219,211.497 571.611219,211.50859 572.205219,211.537567 C572.355219,211.655403 572.491219,211.798352 572.607219,211.968346 C572.775219,212.812518 572.897219,213.656691 572.971219,214.497" id="Fill-101" fill="#09181B" fill-rule="nonzero"></path>
            <path d="M569.461681,209.497 C569.461681,209.497 566.082347,220.254451 554,229.338257 C559.684118,229.375563 563.632034,235.497 563.632034,235.497 C563.632034,235.497 575.271023,225.795963 572.602415,212.040534 C571.812155,210.816246 569.461681,209.497 569.461681,209.497" id="Fill-102" fill="#C2C2C2" fill-rule="nonzero"></path>
            <path d="M581,249.796278 C580.242303,264.902321 571.345472,268.497 570.087532,268.497 C568.829591,268.497 560.291241,264.902321 561.047308,249.796278 L571.239557,245.497 L581,249.796278" id="Fill-103" fill="#FFFFFE" fill-rule="nonzero"></path>
            <path d="M604.288152,329.497 L594,338.487665 L607.646253,347.497 C607.646253,347.497 615.988043,338.209306 611.846386,332.908598 L604.288152,329.497" id="Fill-104" fill="#E4E4DE" fill-rule="nonzero"></path>
            <path d="M592.729215,352.764546 L597.841907,355.101179 C599.876681,356.032778 602.25273,355.274263 603.453633,353.305858 L607,347.504152 L593.851238,338.497 L590.414337,346.389288 C589.355096,348.822645 590.39824,351.698892 592.729215,352.764546" id="Fill-105" fill="#E4E4DE" fill-rule="nonzero"></path>
            <path d="M533.923649,150.497382 C524.72118,151.720235 527.81494,154.605507 548.339398,157.18837 C568.863855,159.771234 574,157.733697 574,157.733697 C574,157.733697 550.433764,150.436239 533.923649,150.497382" id="Fill-106" fill="#132529" fill-rule="nonzero"></path>
            <path d="M580.199602,161.497 C580.199602,161.497 562.133321,154.216645 533.656533,150.251897 C533.306939,146.107388 536.755819,141.711545 536.755819,141.711545 C536.755819,141.711545 530.409343,138.559055 532.379171,132.54369 C534.348999,126.526662 543.423317,127.327268 554.027109,122.497 C557.916343,126.73139 568.585684,133.602288 575.864972,134.484453 C577.671768,138.157919 582.37448,147.357399 590,150.912689 C589.890752,154.922377 582.308931,155.962665 582.308931,155.962665 C582.308931,155.962665 582.665248,158.664086 580.199602,161.497" id="Fill-107" fill="#C2C2C2" fill-rule="nonzero"></path>
            <path d="M582.465133,157.428 C582.571133,156.296 582.524133,155.566 582.524133,155.566 C582.524133,155.566 582.572133,156.296 582.465133,157.428" id="Fill-108" fill="#051317" fill-rule="nonzero"></path>
            <path d="M580.859902,161.497 L580.859902,161.497 C580.824386,161.48214 562.651734,154.270054 534.025369,150.342043 C534.008456,150.142257 534,149.940821 534,149.739384 C534.003383,145.814675 537.144063,141.871804 537.144063,141.871804 C538.730471,141.615881 540.39975,141.497 542.126532,141.497 C557.35469,141.497 577.015655,150.711893 582.982441,156.007031 C582.982441,156.007031 583.06193,156.609689 582.882656,157.544222 C582.683087,158.579473 582.163868,160.019249 580.859902,161.497" id="Fill-109" fill="#A9A9A9" fill-rule="nonzero"></path>
            <path d="M557,134.197131 C555.03072,144.702707 548.183035,146.584302 547.262735,146.493972 C546.342435,146.403642 540.42971,143.284693 542.398989,132.779117 L550.259819,130.497 L557,134.197131" id="Fill-110" fill="#FFFFFE" fill-rule="nonzero"></path>
            <path d="M422.876274,304.497 C420.823331,304.497 419.047189,302.924158 418.791807,300.779065 L407.031047,202.248703 C406.754246,199.927533 408.359034,197.816301 410.617931,197.531869 C412.871884,197.232199 414.931418,198.898159 415.208219,201.217636 L426.968979,299.747998 C427.24578,302.069168 425.639344,304.1804 423.382095,304.464832 C423.21239,304.486842 423.042684,304.497 422.876274,304.497" id="Fill-111" fill="#132529" fill-rule="nonzero"></path>
            <path d="M420.194343,259.837916 C419.128796,256.083414 421.148749,255.518311 419.195834,250.190909 C418.156749,247.357006 421.570381,245.168696 422.002598,247.442526 C423.579748,255.739657 435.187861,260.382898 431.153248,265.626456 C427.055126,270.952181 421.25989,263.594095 420.194343,259.837916" id="Fill-112" fill="#E4E4DE" fill-rule="nonzero"></path>
            <path d="M474.85119,171.992768 C442.545417,213.329999 382.84498,220.653082 341.505919,188.347431 C300.166859,156.041779 292.843748,96.34324 325.14952,55.0043337 C357.455293,13.6637527 417.15573,6.3406693 458.494791,38.6463209 C499.833851,70.9519725 507.155287,130.652187 474.85119,171.992768" id="Fill-113" fill="#D6D6D6" fill-rule="nonzero"></path>
            <path d="M476.419577,104.123791 C481.595453,146.327615 451.579069,184.739045 409.373572,189.916604 C367.168075,195.092481 328.756651,165.07441 323.580775,122.870587 C318.403218,80.665082 348.419602,42.2536518 390.625099,37.0777746 C432.830596,31.9002164 471.24202,61.9166058 476.419577,104.123791" id="Fill-114" fill="#FFFFFE" fill-rule="nonzero"></path>
            <path d="M450.540348,100.066661 C444.202643,91.511695 432.057903,100.07172 428.353328,109.082008 C427.372854,111.469911 426.415965,114.54754 426.404172,116.080453 L422.391304,88.562229 L419.197182,62.5010317 C418.560379,57.3086913 413.514811,53.8566872 408.452397,55.1501348 C404.227261,56.229413 401.459359,60.2817657 401.990028,64.6140562 L401.194866,58.1198364 C400.558064,52.9291824 395.512496,49.4771783 390.450082,50.7689395 C386.223261,51.8465314 383.457043,55.9005704 383.987712,60.2328609 L385.096221,69.2853075 C384.461103,64.0929672 379.415535,60.640963 374.351437,61.9327242 C370.1263,63.0120025 367.360083,67.0643552 367.890752,71.398332 L369.272176,82.680163 C368.637058,77.4878224 363.589806,74.0358183 358.527392,75.3292659 C354.302255,76.4068578 351.534353,80.460897 352.065022,84.793187 L359.413525,144.752155 C361.263285,159.845187 367.179824,168.4811 375.96366,172.342892 C389.461184,178.27555 414.112867,178.344691 425.201323,169.336091 C434.898246,161.459045 441.141609,142.478925 442.644329,130.733342 C444.138626,119.050155 453.10946,103.53047 450.540348,100.066661" id="Fill-115" fill="#E4E4DE" fill-rule="nonzero"></path>
            <polyline id="Fill-116" fill="#D6D6D6" fill-rule="nonzero" points="351.685443 192.497 336 180.181234 449.316237 34.497 465 46.8127659 351.685443 192.497"></polyline>
        </g>
    </g>
</svg>