<?xml version="1.0" encoding="utf-8"?>
<!-- Generator: Adobe Illustrator 27.0.0, SVG Export Plug-In . SVG Version: 6.00 Build 0)  -->
<svg version="1.1" id="Layer_1" xmlns="http://www.w3.org/2000/svg" xmlns:xlink="http://www.w3.org/1999/xlink" x="0px" y="0px"
	 viewBox="0 0 216.7 81.9" style="enable-background:new 0 0 216.7 81.9;" xml:space="preserve">
<style type="text/css">
	.st0{fill:#FFFFFF;}
</style>
<g>
	<g>
		<path class="st0" d="M156.8,56.8c-1.3,1.1-2.9,1.7-4.8,1.7h-4.6v12.3h-1.4V46.2h6c1.9,0,3.5,0.6,4.8,1.7c1.3,1.1,1.9,2.6,1.9,4.4
			C158.8,54.2,158.1,55.6,156.8,56.8z M155.8,48.8c-0.9-0.8-2.2-1.2-3.7-1.2h-4.6v9.5h4.6c1.5,0,2.8-0.4,3.8-1.2
			c1-0.9,1.5-2.1,1.5-3.6C157.3,50.8,156.8,49.6,155.8,48.8z"/>
		<path class="st0" d="M162.1,70.8V46.2h1.4v23.2h6.9v1.4H162.1z"/>
		<path class="st0" d="M189.5,70.8l-2.8-7.4h-11.2l-2.9,7.4h-1.4l9.8-25.4l9.9,25.4H189.5z M181.1,49l-5,13h10.1L181.1,49z"/>
		<path class="st0" d="M194.4,49.9v20.9H193V46l18.4,21.6V46.2h1.4v25L194.4,49.9z"/>
	</g>
	<g>
		<path class="st0" d="M123.4,75.3c-0.1-0.1-0.3-0.1-0.6-0.1h-1.3v1.7h1.3c0.3,0,0.5-0.1,0.7-0.2c0.2-0.1,0.3-0.4,0.3-0.7
			C123.8,75.7,123.6,75.4,123.4,75.3z"/>
		<polygon class="st0" points="125.8,77.6 127.3,77.6 126.6,75.4 		"/>
		<polygon class="st0" points="101.4,77.6 102.9,77.6 102.2,75.4 		"/>
		<path class="st0" d="M114,75.3c-0.1-0.1-0.3-0.1-0.5-0.1h-1.6v1.7h1.5c0.3,0,0.5-0.1,0.7-0.2c0.2-0.1,0.3-0.4,0.3-0.7
			C114.4,75.7,114.2,75.4,114,75.3z"/>
		<polygon class="st0" points="135.7,77.6 137.3,77.6 136.5,75.4 		"/>
		<path class="st0" d="M109.2,75.3c-0.1-0.1-0.3-0.1-0.6-0.1h-1.3v1.7h1.3c0.3,0,0.5-0.1,0.7-0.2c0.2-0.1,0.3-0.4,0.3-0.7
			C109.6,75.7,109.4,75.4,109.2,75.3z"/>
		<path class="st0" d="M83.5,75.2h-1.2V79h1.2c0.2,0,0.4,0,0.5-0.1c0.3-0.1,0.5-0.3,0.6-0.5c0.1-0.2,0.2-0.5,0.3-0.8
			c0-0.2,0-0.4,0-0.5c0-0.6-0.1-1.1-0.4-1.4C84.4,75.4,84,75.2,83.5,75.2z"/>
		<path class="st0" d="M3.9,72.8v7.3h208.9v-7.3H3.9z M76,79.6h-0.6v-2.9c0-0.1,0-0.3,0-0.5c0-0.2,0-0.5,0-0.8L74,79.6h-0.7
			l-1.4-4.2v0.2c0,0.1,0,0.3,0,0.6c0,0.2,0,0.4,0,0.5v2.9h-0.6v-4.9h1l1.4,4.2l1.4-4.2h1V79.6z M80.7,79.6h-3.6v-4.9h3.6v0.6h-2.9
			v1.5h2.7v0.6h-2.7V79h3V79.6z M85.4,78.5c-0.3,0.7-0.9,1.1-1.8,1.1h-2v-4.9h2c0.7,0,1.2,0.2,1.6,0.7c0.3,0.4,0.5,1,0.5,1.7
			C85.7,77.6,85.6,78,85.4,78.5z M87.4,79.6h-0.7v-4.9h0.7V79.6z M92,79.1c-0.4,0.4-0.9,0.6-1.6,0.6c-0.6,0-1-0.2-1.4-0.5
			c-0.5-0.5-0.8-1.2-0.8-2.1c0-0.7,0.2-1.3,0.6-1.8c0.4-0.5,1-0.8,1.7-0.8c0.6,0,1.1,0.2,1.4,0.5c0.3,0.3,0.5,0.7,0.6,1.1h-0.7
			c-0.1-0.3-0.2-0.6-0.4-0.8c-0.2-0.2-0.5-0.3-0.9-0.3c-0.5,0-0.9,0.2-1.2,0.5c-0.3,0.3-0.4,0.9-0.4,1.6c0,0.6,0.1,1,0.4,1.4
			s0.7,0.5,1.2,0.5c0.5,0,0.9-0.2,1.1-0.6c0.1-0.2,0.2-0.5,0.3-0.8h0.7C92.6,78.3,92.4,78.7,92,79.1z M94.3,79.6h-0.7v-4.9h0.7V79.6
			z M99.3,79.6h-0.8l-2.5-4v4h-0.6v-4.9h0.8l2.5,4v-4h0.6V79.6z M103.6,79.6l-0.5-1.5h-1.9l-0.5,1.5H100l1.9-4.9h0.8l1.8,4.9H103.6z
			 M109.9,77.1c-0.2,0.3-0.6,0.4-1.1,0.4h-1.5v2.1h-0.7v-4.9h2.2c0.4,0,0.8,0.1,1.1,0.4c0.3,0.2,0.4,0.6,0.4,1
			C110.3,76.4,110.1,76.8,109.9,77.1z M115.2,79.6h-0.8c0,0,0-0.1-0.1-0.2c0-0.1,0-0.2,0-0.4l0-0.8c0-0.3-0.1-0.5-0.4-0.6
			c-0.1-0.1-0.3-0.1-0.6-0.1h-1.5v2.1h-0.7v-4.9h2.2c0.4,0,0.7,0.1,0.9,0.2c0.5,0.2,0.7,0.6,0.7,1.2c0,0.3-0.1,0.5-0.2,0.7
			c-0.1,0.2-0.3,0.3-0.5,0.5c0.2,0.1,0.3,0.2,0.4,0.3c0.1,0.1,0.2,0.3,0.2,0.6l0,0.7c0,0.2,0,0.3,0,0.4c0,0.2,0.1,0.3,0.2,0.3V79.6z
			 M119.8,79.6h-3.6v-4.9h3.6v0.6h-2.9v1.5h2.7v0.6h-2.7V79h3V79.6z M123,77.5h-1.5v2.1h-0.7v-4.9h2.2c0.4,0,0.8,0.1,1.1,0.4
			c0.3,0.2,0.4,0.6,0.4,1c0,0.4-0.1,0.7-0.4,1C123.8,77.3,123.5,77.5,123,77.5z M128,79.6l-0.5-1.5h-1.9l-0.5,1.5h-0.7l1.9-4.9h0.8
			l1.8,4.9H128z M133.6,79.6h-0.4l-0.2-0.6c-0.2,0.2-0.4,0.4-0.6,0.5c-0.3,0.2-0.7,0.2-1.1,0.2c-0.6,0-1.1-0.2-1.5-0.6
			c-0.5-0.5-0.7-1.1-0.7-2c0-0.8,0.2-1.5,0.7-2c0.4-0.5,1-0.7,1.6-0.7c0.5,0,0.9,0.1,1.2,0.3c0.5,0.3,0.8,0.7,0.9,1.4h-0.7
			c-0.1-0.4-0.2-0.6-0.5-0.8c-0.2-0.2-0.6-0.2-0.9-0.2c-0.4,0-0.8,0.2-1.1,0.5c-0.3,0.3-0.5,0.9-0.5,1.5c0,0.6,0.1,1.1,0.4,1.4
			c0.3,0.4,0.7,0.6,1.2,0.6c0.4,0,0.8-0.1,1.1-0.4c0.3-0.3,0.4-0.7,0.4-1.3h-1.5v-0.6h2.2V79.6z M138,79.6l-0.5-1.5h-1.9l-0.5,1.5
			h-0.7l1.9-4.9h0.8l1.8,4.9H138z M143.1,78.5c-0.3,0.7-0.9,1.1-1.8,1.1h-2v-4.9h2c0.7,0,1.2,0.2,1.6,0.7c0.3,0.4,0.5,1,0.5,1.7
			C143.4,77.6,143.3,78,143.1,78.5z M147.6,79.6l-0.5-1.5h-1.9l-0.5,1.5h-0.7l1.9-4.9h0.8l1.8,4.9H147.6z"/>
		<path class="st0" d="M141.2,75.2h-1.2V79h1.2c0.2,0,0.4,0,0.5-0.1c0.3-0.1,0.5-0.3,0.6-0.5c0.1-0.2,0.2-0.5,0.3-0.8
			c0-0.2,0-0.4,0-0.5c0-0.6-0.1-1.1-0.4-1.4C142.1,75.4,141.7,75.2,141.2,75.2z"/>
		<polygon class="st0" points="145.3,77.6 146.9,77.6 146.1,75.4 		"/>
	</g>
	<g>
		<g id="XMLID_00000145736806772017841290000002857712424346276488_">
			<g id="XMLID_00000021107906881723677230000009211508941869128069_">
				<path id="XMLID_00000102526155425493406150000011977355255203506321_" class="st0" d="M22.9,70.1h-7.7v-7.3h-2.4v-6.1h2.4v-2.1
					c0-1.2-0.8-2-1.8-2c-1,0-1.7,0.8-1.7,2v15.5H3.9V54.8c0-3.4,2.5-9.1,9.5-9.1c7,0,9.5,5.7,9.5,9.1V70.1z"/>
				<path id="XMLID_00000075152663460066378460000001933668647705408147_" class="st0" d="M41.9,63.5c0,3.8-3.1,6.6-9,6.6h-7.5v-6.8
					h4.7c2.3,0,2.9-0.2,2.9-1.1c0-1.6-7.5-4.3-7.5-9.4c0-5.1,4-6.6,8.3-6.6h7.1v6.7h-4.7c-1.8,0-2.2,0.3-2.2,0.9
					C34,55.2,41.9,57.9,41.9,63.5"/>
				<path id="XMLID_00000031179608126308773910000009755701529334972076_" class="st0" d="M60.1,70.1h-3.9c-5.8,0-12.5-3.8-12.5-12
					c0-8.2,6.7-12,12.5-12h3.9v6.4h-3c-1.9,0-4,0.6-5,2.8h8V61h-8c1,2.2,3,2.7,5,2.7h3V70.1z"/>
				<path id="XMLID_00000106107089072393247560000002861044698781709208_" class="st0" d="M91,70.1h-7.5L82.7,56h-0.1L80,66.5
					c-0.8,3.3-1.3,4-3.2,4c-1.9,0-2.3-0.7-3.1-4L71,56H71l-0.8,14.1h-7.5l1.7-19.3c0.4-4.1,2.7-5,5.1-5c3.6,0,4.6,1,5.3,3.8l2,7.4
					h0.1l2-7.4c0.8-2.8,1.8-3.8,5.4-3.8c2.4,0,4.8,1,5.1,5L91,70.1z"/>
				<path id="XMLID_00000071543110036746631290000017812635781754492578_" class="st0" d="M113.7,62.9c0,4.7-3.5,7.2-7.7,7.2h-3.2
					v-6.4c1.2-0.1,2.9-0.3,2.9-1.7c0-1.6-1.7-1.6-2.9-1.6v-5.3c1.1,0,1.8-0.6,1.8-1.6c0-0.8-0.8-1.2-1.5-1.2c-0.9,0-1.3,0.5-1.3,1.9
					v15.9H94V53.7c0-4.8,3.7-8,9.4-8c4.4,0,8.7,2.7,8.7,7.3c0,1.6-0.4,2.8-1.6,4.1C112.6,58.3,113.7,60.3,113.7,62.9"/>
				
					<rect id="XMLID_00000002359259401319665610000007759712563211975826_" x="116.3" y="46.1" class="st0" width="7.7" height="24"/>
				<path id="XMLID_00000023274618254806097470000014323846892463130535_" class="st0" d="M143.1,63.5c0,3.8-3.1,6.6-9,6.6h-7.5
					v-6.8h4.7c2.3,0,2.9-0.2,2.9-1.1c0-1.6-7.5-4.3-7.5-9.4c0-5.1,4-6.6,8.4-6.6h7.1v6.7h-4.7c-1.8,0-2.2,0.3-2.2,0.9
					C135.1,55.2,143.1,57.9,143.1,63.5"/>
			</g>
		</g>
	</g>
	<g>
		<path class="st0" d="M103.5,21.5l3.6-4.8l3.8,8.3l0.8-3.6h2.8l2.5-11.5l3.6,16.4l1.7-4.9l4.5,0l2.6-5.5l2.2,5.5l8.5,0
			c1.2-2.6,1.9-5.5,1.9-8.4c0-6.2-5-11.3-11.3-11.3c-6.2,0-11.2,4.4-11.2,8.7c0-4.2-5-8.7-11.2-8.7c-6.2,0-11.2,5.1-11.2,11.3
			c0,3,0.7,5.8,1.9,8.4H103.5z"/>
		<path class="st0" d="M130.5,22.5l-1.3-3.2l-1.6,3.3l-4.4,0l-3.1,8.7l-3.2-14.9l-1.3,6.1h-2.8l-1.5,6.7l-4.5-10l-2.5,3.3h-5.1
			c5.8,11.7,20.1,19.6,20.1,19.6s14.4-7.9,20.2-19.6L130.5,22.5z"/>
	</g>
</g>
</svg>
